{
  "textures": [
    {
      "source": 0,
      "sampler": 0
    }
  ],
  "skins": [
    {
      "name": "AvatarRoot",
      "joints": [
        37,
        36,
        3,
        2,
        0,
        1,
        19,
        6,
        5,
        4,
        9,
        8,
        7,
        12,
        11,
        10,
        15,
        14,
        13,
        18,
        17,
        16,
        35,
        22,
        21,
        20,
        25,
        24,
        23,
        28,
        27,
        26,
        31,
        30,
        29,
        34,
        33,
        32
      ],
      "inverseBindMatrices": 6
    }
  ],
  "scenes": [
    {
      "nodes": [
        39
      ],
      "name": "Scene"
    }
  ],
  "scene": 0,
  "samplers": [
    {
      "minFilter": 9984,
      "magFilter": 9728
    }
  ],
  "nodes": [
    {
      "translation": [
        -0.06142759323120117,
        0.059483159333467484,
        0.1313280463218689
      ],
      "scale": [
        1,
        0.9999998211860657,
        0.9999999403953552
      ],
      "rotation": [
        -3.1243722276030894e-8,
        0.6993563771247864,
        0.7147731184959412,
        -3.056983644000866e-8
      ],
      "name": "RightEye"
    },
    {
      "translation": [
        0.06142759323120117,
        0.059483159333467484,
        0.1313280463218689
      ],
      "scale": [
        1,
        0.9999998211860657,
        0.9999999403953552
      ],
      "rotation": [
        -3.1243722276030894e-8,
        0.6993563771247864,
        0.7147731184959412,
        -3.056983644000866e-8
      ],
      "name": "LeftEye"
    },
    {
      "translation": [
        -7.126400552229097e-26,
        0.090545654296875,
        0
      ],
      "scale": [
        1,
        1,
        0.9999999403953552
      ],
      "rotation": [
        -0.010901344940066338,
        2.3838847621921746e-16,
        1.1197871515652907e-17,
        0.9999405741691589
      ],
      "name": "Head",
      "extensions": {
        "MOZ_hubs_components": {
          "scale-audio-feedback": ""
        }
      },
      "children": [
        0,
        1
      ]
    },
    {
      "translation": [
        -2.9696303928876325e-25,
        0.14346694946289062,
        0
      ],
      "rotation": [
        3.694822225952521e-13,
        -6.336202251385273e-18,
        -6.336200183433742e-18,
        1
      ],
      "name": "Neck",
      "children": [
        2
      ]
    },
    {
      "translation": [
        2.729954928781808e-9,
        0.02576299011707306,
        -3.097376222171988e-8
      ],
      "scale": [
        0.9999999403953552,
        0.9999997615814209,
        0.9999998807907104
      ],
      "rotation": [
        0.13052505254745483,
        -0.0005469596944749355,
        -0.004154572729021311,
        0.9914361834526062
      ],
      "name": "RightHandIndex3"
    },
    {
      "translation": [
        2.939486876130104e-9,
        0.03359612822532654,
        -1.83499651029706e-8
      ],
      "scale": [
        0.9999998807907104,
        0.9999998807907104,
        0.9999999403953552
      ],
      "rotation": [
        0.1311354637145996,
        -0.0003800746926572174,
        -0.008156165480613708,
        0.9913308620452881
      ],
      "name": "RightHandIndex2",
      "children": [
        4
      ]
    },
    {
      "translation": [
        0.030060790479183197,
        0.08251190185546875,
        0.000041963940020650625
      ],
      "scale": [
        0.9999998807907104,
        1,
        0.9999999403953552
      ],
      "rotation": [
        0.12955401837825775,
        -0.009594002738595009,
        -0.06798379868268967,
        0.9891926050186157
      ],
      "name": "RightHandIndex1",
      "children": [
        5
      ]
    },
    {
      "translation": [
        -2.1321611143321206e-11,
        0.026764169335365295,
        2.987069436244383e-8
      ],
      "scale": [
        1,
        1,
        0.9999998807907104
      ],
      "rotation": [
        0.13052529096603394,
        -0.00048590326332487166,
        -0.0036908010952174664,
        0.9914380311965942
      ],
      "name": "RightHandMiddle3"
    },
    {
      "translation": [
        3.6889602483825e-11,
        0.03402133658528328,
        7.94736498832549e-12
      ],
      "scale": [
        0.9999999403953552,
        0.9999998211860657,
        0.9999998807907104
      ],
      "rotation": [
        0.13052548468112946,
        0.0004235425731167197,
        0.0032171260099858046,
        0.991439700126648
      ],
      "name": "RightHandMiddle2",
      "children": [
        7
      ]
    },
    {
      "translation": [
        0.008664092980325222,
        0.0884857177734375,
        6.541135411097798e-10
      ],
      "scale": [
        1,
        1,
        0.9999998807907104
      ],
      "rotation": [
        0.13052432239055634,
        -0.0006989971152506769,
        -0.005309168249368668,
        0.9914306402206421
      ],
      "name": "RightHandMiddle1",
      "children": [
        8
      ]
    },
    {
      "translation": [
        -9.526441857587997e-10,
        0.027109680697321892,
        4.6445225443392246e-10
      ],
      "scale": [
        0.9999999403953552,
        0.9999998211860657,
        0.9999998807907104
      ],
      "rotation": [
        0.13052603602409363,
        0.00020292706904001534,
        0.001541382516734302,
        0.9914436936378479
      ],
      "name": "RightHandRing3"
    },
    {
      "translation": [
        9.100045161858361e-10,
        0.02921355329453945,
        -2.922385355930146e-8
      ],
      "scale": [
        1,
        0.9999999403953552,
        0.9999998807907104
      ],
      "rotation": [
        0.13052387535572052,
        -0.0007770425290800631,
        -0.005902226082980633,
        0.9914273619651794
      ],
      "name": "RightHandRing2",
      "children": [
        10
      ]
    },
    {
      "translation": [
        -0.008930363692343235,
        0.08562469482421875,
        -6.741829317036263e-10
      ],
      "scale": [
        0.9999999403953552,
        0.9999999403953552,
        0.9999998807907104
      ],
      "rotation": [
        0.13043175637722015,
        0.00496431952342391,
        0.03770798444747925,
        0.9907276630401611
      ],
      "name": "RightHandRing1",
      "children": [
        11
      ]
    },
    {
      "translation": [
        -8.403228335396307e-9,
        0.019546328112483025,
        1.7050246770011768e-9
      ],
      "scale": [
        1,
        1,
        0.9999998807907104
      ],
      "rotation": [
        0.13052277266979218,
        0.0009446449694223702,
        0.00717528723180294,
        0.9914188981056213
      ],
      "name": "RightHandPinky3"
    },
    {
      "translation": [
        -8.403233664466825e-9,
        0.03334921970963478,
        1.9384338578731786e-9
      ],
      "scale": [
        0.9999999403953552,
        0.9999998807907104,
        0.9999998807907104
      ],
      "rotation": [
        0.1305205523967743,
        -0.0012128667440265417,
        -0.009212641045451164,
        0.9914020895957947
      ],
      "name": "RightHandPinky2",
      "children": [
        13
      ]
    },
    {
      "translation": [
        -0.027167774736881256,
        0.07669830322265625,
        -2.0510193543543664e-9
      ],
      "scale": [
        1,
        0.9999998211860657,
        0.9999998807907104
      ],
      "rotation": [
        0.12967880070209503,
        0.014849046245217323,
        0.11278992891311646,
        0.9850082993507385
      ],
      "name": "RightHandPinky1",
      "children": [
        14
      ]
    },
    {
      "translation": [
        1.4901161193847656e-8,
        0.02678348496556282,
        1.1175870895385742e-8
      ],
      "scale": [
        1,
        0.9999998211860657,
        0.9999997615814209
      ],
      "rotation": [
        0.1289546936750412,
        0.03374079242348671,
        -0.00780704477801919,
        0.9910456538200378
      ],
      "name": "RightHandThumb3"
    },
    {
      "translation": [
        7.450580596923828e-9,
        0.034613240510225296,
        -1.862645149230957e-9
      ],
      "scale": [
        1.0000001192092896,
        1.000000238418579,
        1
      ],
      "rotation": [
        0.2434278279542923,
        -0.030368313193321228,
        0.012068187817931175,
        0.9693684577941895
      ],
      "name": "RightHandThumb2",
      "children": [
        16
      ]
    },
    {
      "translation": [
        0.029540561139583588,
        0.01871490478515625,
        2.2301858138007447e-9
      ],
      "rotation": [
        -0.10296434164047241,
        -0.28252851963043213,
        -0.32656121253967285,
        0.8960658311843872
      ],
      "name": "RightHandThumb1",
      "children": [
        17
      ]
    },
    {
      "translation": [
        -0.65826416015625,
        5.168088179630104e-14,
        1.6292506188619882e-7
      ],
      "rotation": [
        0.4999999701976776,
        -0.4999999701976776,
        0.5000001192092896,
        0.5000001192092896
      ],
      "name": "RightHand",
      "children": [
        6,
        9,
        12,
        15,
        18
      ]
    },
    {
      "translation": [
        -4.6047308188690295e-9,
        0.02576299011707306,
        -1.6233819621902512e-8
      ],
      "scale": [
        0.9999999403953552,
        0.9999997615814209,
        0.9999998807907104
      ],
      "rotation": [
        0.13052505254745483,
        0.0005469596944749355,
        0.004154572729021311,
        0.9914361834526062
      ],
      "name": "LeftHandIndex3"
    },
    {
      "translation": [
        -1.1379597708582878e-8,
        0.03359612822532654,
        -1.5024852473288774e-9
      ],
      "scale": [
        0.9999998807907104,
        0.9999998807907104,
        0.9999999403953552
      ],
      "rotation": [
        0.13113544881343842,
        0.0003798383113462478,
        0.008156197145581245,
        0.9913308620452881
      ],
      "name": "LeftHandIndex2",
      "children": [
        20
      ]
    },
    {
      "translation": [
        -0.030060790479183197,
        0.08251190185546875,
        0.00004196035661152564
      ],
      "scale": [
        0.9999998807907104,
        1,
        1
      ],
      "rotation": [
        0.12955397367477417,
        0.00959426537156105,
        0.06798376142978668,
        0.989192545413971
      ],
      "name": "LeftHandIndex1",
      "children": [
        21
      ]
    },
    {
      "translation": [
        -2.1321611143321206e-11,
        0.026764169335365295,
        2.8868205603771457e-8
      ],
      "scale": [
        1,
        1,
        0.9999998807907104
      ],
      "rotation": [
        0.13052529096603394,
        0.00048590326332487166,
        0.0036908010952174664,
        0.9914380311965942
      ],
      "name": "LeftHandMiddle3"
    },
    {
      "translation": [
        -7.953104841362801e-11,
        0.03402133658528328,
        -1.0854506182766954e-10
      ],
      "scale": [
        0.9999999403953552,
        0.9999998211860657,
        0.9999998807907104
      ],
      "rotation": [
        0.13052548468112946,
        -0.00042354263132438064,
        -0.0032171260099858046,
        0.991439700126648
      ],
      "name": "LeftHandMiddle2",
      "children": [
        23
      ]
    },
    {
      "translation": [
        -0.008664092980325222,
        0.0884857177734375,
        -3.787526958731746e-10
      ],
      "scale": [
        1,
        1,
        0.9999998807907104
      ],
      "rotation": [
        0.13052432239055634,
        0.0006990246474742889,
        0.0053091649897396564,
        0.9914306402206421
      ],
      "name": "LeftHandMiddle1",
      "children": [
        24
      ]
    },
    {
      "translation": [
        2.7726461127031143e-9,
        0.027109680697321892,
        -6.258269014125517e-9
      ],
      "scale": [
        0.9999999403953552,
        0.9999998211860657,
        0.9999998807907104
      ],
      "rotation": [
        0.13052603602409363,
        -0.00020292706904001534,
        -0.001541382516734302,
        0.9914436936378479
      ],
      "name": "LeftHandRing3"
    },
    {
      "translation": [
        -2.815285782276078e-9,
        0.02921355329453945,
        -3.7553483878127736e-8
      ],
      "scale": [
        1,
        0.9999999403953552,
        0.9999998807907104
      ],
      "rotation": [
        0.13052387535572052,
        0.0007770424126647413,
        0.005902226082980633,
        0.9914273619651794
      ],
      "name": "LeftHandRing2",
      "children": [
        26
      ]
    },
    {
      "translation": [
        0.008930363692343235,
        0.08562469482421875,
        3.903735668053798e-10
      ],
      "scale": [
        0.9999999403953552,
        0.9999999403953552,
        0.9999998807907104
      ],
      "rotation": [
        0.13043175637722015,
        -0.004964291583746672,
        -0.037707991898059845,
        0.9907276630401611
      ],
      "name": "LeftHandRing1",
      "children": [
        27
      ]
    },
    {
      "translation": [
        6.497934634808189e-9,
        0.019546328112483025,
        9.544861789834158e-9
      ],
      "scale": [
        1,
        1,
        0.9999998807907104
      ],
      "rotation": [
        0.13052277266979218,
        -0.0009446450276300311,
        -0.007175286300480366,
        0.9914188981056213
      ],
      "name": "LeftHandPinky3"
    },
    {
      "translation": [
        6.497927529380831e-9,
        0.03334921970963478,
        7.3194890148897684e-9
      ],
      "scale": [
        0.9999999403953552,
        0.9999998807907104,
        0.9999998807907104
      ],
      "rotation": [
        0.1305205523967743,
        0.0012128667440265417,
        0.009212641045451164,
        0.9914020895957947
      ],
      "name": "LeftHandPinky2",
      "children": [
        29
      ]
    },
    {
      "translation": [
        0.027167774736881256,
        0.07669830322265625,
        1.1876060135307398e-9
      ],
      "scale": [
        1,
        0.9999998211860657,
        0.9999998807907104
      ],
      "rotation": [
        0.12967880070209503,
        -0.01484901923686266,
        -0.11278993636369705,
        0.9850082993507385
      ],
      "name": "LeftHandPinky1",
      "children": [
        30
      ]
    },
    {
      "translation": [
        5.21540641784668e-8,
        0.02678358554840088,
        -3.725290298461914e-9
      ],
      "scale": [
        1,
        0.9999999403953552,
        1
      ],
      "rotation": [
        0.12892387807369232,
        -0.0010546561097726226,
        0.003451833501458168,
        0.9916479587554932
      ],
      "name": "LeftHandThumb3"
    },
    {
      "translation": [
        2.60770320892334e-8,
        0.03461325168609619,
        -1.30385160446167e-8
      ],
      "scale": [
        0.9999999403953552,
        0.9999999403953552,
        1
      ],
      "rotation": [
        0.24343818426132202,
        0.029522377997636795,
        -0.011855707503855228,
        0.9693945050239563
      ],
      "name": "LeftHandThumb2",
      "children": [
        32
      ]
    },
    {
      "translation": [
        -0.029540561139583588,
        0.01871490478515625,
        -1.2913491387323006e-9
      ],
      "rotation": [
        -0.10324937105178833,
        0.28331050276756287,
        0.326471209526062,
        0.8958188891410828
      ],
      "name": "LeftHandThumb1",
      "children": [
        33
      ]
    },
    {
      "translation": [
        0.65826416015625,
        5.168088179630104e-14,
        1.6292506188619882e-7
      ],
      "rotation": [
        0.4999999403953552,
        0.4999999403953552,
        -0.5000000596046448,
        0.5000000596046448
      ],
      "name": "LeftHand",
      "children": [
        22,
        25,
        28,
        31,
        34
      ]
    },
    {
      "translation": [
        0,
        0.3300018310546875,
        0
      ],
      "rotation": [
        1.3642420526593924e-12,
        7.286587693865318e-18,
        7.286586039504093e-18,
        1
      ],
      "name": "Spine",
      "children": [
        3,
        19,
        35
      ]
    },
    {
      "rotation": [
        1.003346241645886e-7,
        0,
        0,
        1
      ],
      "name": "Hips",
      "children": [
        36
      ]
    },
    {
      "translation": [
        -0.7200000286102295,
        0.33000001311302185,
        0
      ],
      "skin": 0,
      "scale": [
        0.05062500387430191,
        0.05062500387430191,
        0.05062500387430191
      ],
      "name": "Avatar",
      "mesh": 0
    },
    {
      "name": "AvatarRoot",
      "children": [
        38,
        37
      ]
    }
  ],
  "meshes": [
    {
      "primitives": [
        {
          "material": 0,
          "indices": 5,
          "attributes": {
            "WEIGHTS_0": 4,
            "TEXCOORD_0": 2,
            "POSITION": 0,
            "NORMAL": 1,
            "JOINTS_0": 3
          }
        }
      ],
      "name": "Avatar_Mesh"
    }
  ],
  "materials": [
    {
      "pbrMetallicRoughness": {
        "roughnessFactor": 1,
        "metallicFactor": 0,
        "baseColorTexture": {
          "texCoord": 0,
          "index": 0
        }
      },
      "name": "Bot_PBS",
      "doubleSided": true,
      "alphaMode": "MASK",
      "alphaCutoff": 0.5
    }
  ],
  "images": [
    {
      "uri": "5c8c6243-0020-4bb3-9e0b-2c8e97c26448.png",
      "mimeType": "image/png"
    }
  ],
  "extensionsUsed": [
    "MOZ_hubs_components"
  ],
  "buffers": [
    {
      "uri": "140f9f25-9b65-4829-a229-57a114c561bd.bin",
      "byteLength": 17864
    }
  ],
  "bufferViews": [
    {
      "byteOffset": 0,
      "byteLength": 2304,
      "buffer": 0
    },
    {
      "byteOffset": 2304,
      "byteLength": 2304,
      "buffer": 0
    },
    {
      "byteOffset": 4608,
      "byteLength": 1536,
      "buffer": 0
    },
    {
      "byteOffset": 6144,
      "byteLength": 1536,
      "buffer": 0
    },
    {
      "byteOffset": 7680,
      "byteLength": 3072,
      "buffer": 0
    },
    {
      "byteOffset": 10752,
      "byteLength": 576,
      "buffer": 0
    },
    {
      "byteOffset": 11328,
      "byteLength": 2432,
      "buffer": 0
    },
    {
      "byteOffset": 13760,
      "byteLength": 360,
      "buffer": 0
    },
    {
      "byteOffset": 14120,
      "byteLength": 1440,
      "buffer": 0
    },
    {
      "byteOffset": 15560,
      "byteLength": 92,
      "buffer": 0
    },
    {
      "byteOffset": 15652,
      "byteLength": 276,
      "buffer": 0
    },
    {
      "byteOffset": 15928,
      "byteLength": 1440,
      "buffer": 0
    },
    {
      "byteOffset": 17368,
      "byteLength": 276,
      "buffer": 0
    },
    {
      "byteOffset": 17644,
      "byteLength": 218,
      "buffer": 0
    }
  ],
  "asset": {
    "version": "2.0",
    "generator": "Khronos glTF Blender I/O v0.9.36"
  },
  "animations": [
    {
      "samplers": [
        {
          "output": 8,
          "interpolation": "STEP",
          "input": 7
        },
        {
          "output": 10,
          "interpolation": "STEP",
          "input": 9
        },
        {
          "output": 11,
          "interpolation": "STEP",
          "input": 7
        },
        {
          "output": 12,
          "interpolation": "STEP",
          "input": 9
        }
      ],
      "name": "idle_eyes",
      "channels": [
        {
          "target": {
            "path": "rotation",
            "node": 0
          },
          "sampler": 0
        },
        {
          "target": {
            "path": "translation",
            "node": 0
          },
          "sampler": 1
        },
        {
          "target": {
            "path": "rotation",
            "node": 1
          },
          "sampler": 2
        },
        {
          "target": {
            "path": "translation",
            "node": 1
          },
          "sampler": 3
        }
      ]
    }
  ],
  "accessors": [
    {
      "type": "VEC3",
      "min": [
        -1,
        -6.814815521240234,
        -2.6666667461395264
      ],
      "max": [
        29.444446563720703,
        8.825346946716309,
        2.6666667461395264
      ],
      "count": 192,
      "componentType": 5126,
      "bufferView": 0
    },
    {
      "type": "VEC3",
      "count": 192,
      "componentType": 5126,
      "bufferView": 1
    },
    {
      "type": "VEC2",
      "count": 192,
      "componentType": 5126,
      "bufferView": 2
    },
    {
      "type": "VEC4",
      "count": 192,
      "componentType": 5123,
      "bufferView": 3
    },
    {
      "type": "VEC4",
      "count": 192,
      "componentType": 5126,
      "bufferView": 4
    },
    {
      "type": "SCALAR",
      "count": 288,
      "componentType": 5123,
      "bufferView": 5
    },
    {
      "type": "MAT4",
      "count": 38,
      "componentType": 5126,
      "bufferView": 6
    },
    {
      "type": "SCALAR",
      "min": [
        0.03333333333333333
      ],
      "max": [
        16.633333333333333
      ],
      "count": 90,
      "componentType": 5126,
      "bufferView": 7
    },
    {
      "type": "VEC4",
      "count": 90,
      "componentType": 5126,
      "bufferView": 8
    },
    {
      "type": "SCALAR",
      "min": [
        0.03333333333333333
      ],
      "max": [
        16.633333333333333
      ],
      "count": 23,
      "componentType": 5126,
      "bufferView": 9
    },
    {
      "type": "VEC3",
      "count": 23,
      "componentType": 5126,
      "bufferView": 10
    },
    {
      "type": "VEC4",
      "count": 90,
      "componentType": 5126,
      "bufferView": 11
    },
    {
      "type": "VEC3",
      "count": 23,
      "componentType": 5126,
      "bufferView": 12
    }
  ]
}